<svg width="800" height="800" viewBox="0 0 800 800" fill="none" xmlns="http://www.w3.org/2000/svg">
	<path d="M399.999 333.333C473.637 333.333 533.333 273.638 533.333 200C533.333 126.362 473.637 66.6667 399.999 66.6667C326.361 66.6667 266.666 126.362 266.666 200C266.666 273.638 326.361 333.333 399.999 333.333Z" stroke="#0F7B7E" stroke-width="50"/>
	<path d="M666.584 600C666.667 594.527 666.667 588.967 666.667 583.333C666.667 500.49 547.277 433.333 400.001 433.333C252.725 433.333 133.334 500.49 133.334 583.333C133.334 666.177 133.334 733.333 400.001 733.333C474.367 733.333 527.994 728.11 566.667 718.78" stroke="#0F7B7E" stroke-width="50" stroke-linecap="round"/>
</svg>