<svg width="800" height="800" viewBox="0 0 800 800" fill="none" xmlns="http://www.w3.org/2000/svg">
	<path d="M66.666 400C66.666 274.292 66.666 211.438 105.718 172.386C144.771 133.333 207.625 133.333 333.333 133.333H466.666C592.373 133.333 655.229 133.333 694.279 172.386C733.333 211.438 733.333 274.292 733.333 400V466.667C733.333 592.373 733.333 655.23 694.279 694.28C655.229 733.333 592.373 733.333 466.666 733.333H333.333C207.625 733.333 144.771 733.333 105.718 694.28C66.666 655.23 66.666 592.373 66.666 466.667V400Z" stroke="#0F7B7E" stroke-width="50"/>
	<path d="M233.334 133.333V83.3334" stroke="#0F7B7E" stroke-width="50" stroke-linecap="round"/>
	<path d="M566.666 133.333V83.3334" stroke="#0F7B7E" stroke-width="50" stroke-linecap="round"/>
	<path d="M83.334 300H716.667" stroke="#0F7B7E" stroke-width="50" stroke-linecap="round"/>
	<path d="M600.001 566.667C600.001 585.077 585.077 600 566.667 600C548.257 600 533.334 585.077 533.334 566.667C533.334 548.257 548.257 533.333 566.667 533.333C585.077 533.333 600.001 548.257 600.001 566.667Z" fill="#0F7B7E"/>
	<path d="M600.001 433.333C600.001 451.743 585.077 466.667 566.667 466.667C548.257 466.667 533.334 451.743 533.334 433.333C533.334 414.923 548.257 400 566.667 400C585.077 400 600.001 414.923 600.001 433.333Z" fill="#0F7B7E"/>
	<path d="M433.333 566.667C433.333 585.077 418.409 600 399.999 600C381.589 600 366.666 585.077 366.666 566.667C366.666 548.257 381.589 533.333 399.999 533.333C418.409 533.333 433.333 548.257 433.333 566.667Z" fill="#0F7B7E"/>
	<path d="M433.333 433.333C433.333 451.743 418.409 466.667 399.999 466.667C381.589 466.667 366.666 451.743 366.666 433.333C366.666 414.923 381.589 400 399.999 400C418.409 400 433.333 414.923 433.333 433.333Z" fill="#0F7B7E"/>
	<path d="M266.667 566.667C266.667 585.077 251.743 600 233.333 600C214.924 600 200 585.077 200 566.667C200 548.257 214.924 533.333 233.333 533.333C251.743 533.333 266.667 548.257 266.667 566.667Z" fill="#0F7B7E"/>
	<path d="M266.667 433.333C266.667 451.743 251.743 466.667 233.333 466.667C214.924 466.667 200 451.743 200 433.333C200 414.923 214.924 400 233.333 400C251.743 400 266.667 414.923 266.667 433.333Z" fill="#0F7B7E"/>
</svg>