<svg width="801" height="801" viewBox="0 0 801 801" fill="none" xmlns="http://www.w3.org/2000/svg">
	<path d="M583.928 461.392L566.385 479.206C576.118 488.789 591.738 488.789 601.472 479.206L583.928 461.392ZM566.092 591.629C549.518 579.436 530.165 563.439 515.202 546.206C499.538 528.169 492.262 512.849 492.262 501.609H442.262C442.262 531.529 459.735 558.589 477.448 578.989C495.862 600.196 518.515 618.699 536.455 631.902L566.092 591.629ZM492.262 501.609C492.262 476.392 503.692 464.389 514.388 460.532C525.622 456.482 545.038 458.179 566.385 479.206L601.472 443.582C570.322 412.902 531.405 401.246 497.428 413.496C462.918 425.939 442.262 459.896 442.262 501.609H492.262ZM631.402 631.902C649.342 618.699 671.995 600.196 690.408 578.989C708.122 558.589 725.595 531.529 725.595 501.609H675.595C675.595 512.849 668.318 528.169 652.655 546.206C637.692 563.439 618.338 579.436 601.765 591.629L631.402 631.902ZM725.595 501.609C725.595 459.896 704.938 425.939 670.428 413.496C636.452 401.246 597.535 412.902 566.385 443.582L601.472 479.206C622.818 458.179 642.235 456.482 653.468 460.532C664.165 464.389 675.595 476.392 675.595 501.609H725.595ZM536.455 631.902C549.065 641.179 563.205 652.742 583.928 652.742V602.742C583.248 602.742 582.718 602.772 580.702 601.696C577.665 600.072 573.868 597.352 566.092 591.629L536.455 631.902ZM601.765 591.629C593.992 597.352 590.195 600.072 587.155 601.696C585.138 602.772 584.608 602.742 583.928 602.742V652.742C604.652 652.742 618.792 641.179 631.402 631.902L601.765 591.629Z" fill="#0F7B7E"/>
	<path d="M333.929 467.073H100.596" stroke="#0F7B7E" stroke-width="50" stroke-linecap="round"/>
	<path d="M333.929 600.406H100.596" stroke="#0F7B7E" stroke-width="50" stroke-linecap="round"/>
	<path d="M100.596 200.406H450.596M667.262 200.406H592.262" stroke="#0F7B7E" stroke-width="50" stroke-linecap="round"/>
	<path d="M667.262 333.739H317.262M100.596 333.739H175.596" stroke="#0F7B7E" stroke-width="50" stroke-linecap="round"/>
</svg>
