<svg width="801" height="801" viewBox="0 0 801 801" fill="none" xmlns="http://www.w3.org/2000/svg">
	<path d="M733.928 733.739H500.595V567.072C500.595 519.932 500.595 496.362 485.952 481.716C471.305 467.072 447.735 467.072 400.595 467.072C353.455 467.072 329.884 467.072 315.24 481.716C300.595 496.362 300.595 519.932 300.595 567.072V733.739H67.2617M67.2617 367.072L338.125 150.383C374.648 121.165 426.542 121.165 463.065 150.383L733.928 367.072M517.262 183.739V117.072C517.262 107.868 524.725 100.406 533.928 100.406H617.262C626.465 100.406 633.928 107.868 633.928 117.072V283.739M133.928 733.739V317.072M667.262 733.739V317.072" stroke="#0F7B7E" stroke-width="50" stroke-linecap="round"/>
</svg>
